<?xml version="1.0" encoding="UTF-8"?>
<svg xmlns="http://www.w3.org/2000/svg" xmlns:xlink="http://www.w3.org/1999/xlink" viewBox="0 0 1280 288">
  <clipPath id="a">
    <path d="m0 0h1280v288h-1280z"></path>
  </clipPath>
  <path d="m0 0h1280v288h-1280z" fill="#44496c"></path>
  <g fill="#0e123a">
    <path d="m951.17 206.67.3.17-47.42 27.38v-.35l47.12-27.21zm-96.64-55.79.52.3v55.01l47.95 27.68v.35l-48.47-27.99-.52.3v-55.36l.52-.3zm97.46-.3.52.3.53-.3v55.36l-.53.3-.52-.3zm-47.12-28.76 47.95 27.68-.3.17-47.94-27.68.3-.17zm-1.87-.48v.35l-48.47 27.98-.3-.17z"></path>
    <path d="m707.82 65.88-.26.15 47.64 27.5.31-.18-47.64-27.5-.04.02zm0 0-.04-.08zm97.2-56.47v55.72l-47.95 27.68v.25l.83.48 47.11-27.2.79-.46.26-.15v-55.97l-.83-.48-.22.13zm-83.19-9.41-13.97 8.07 1.05.61 15.02-8.67h-2.1zm67.33 0 15.02 8.67.31-.18-14.72-8.49z"></path>
    <path d="m708.6 178.56 47.94 27.68 47.95-27.68.52.3v.61l-48.47 27.98-48.47-27.99v-.6l.52-.3zm47.42-84.3v.35l-47.94 27.68v55.02-55.36l47.94-27.68zm1.05 0 48.47 27.99.52-.3v55.71l-.52.3-.52-.3v-55.36l-47.94-27.68v-.35z"></path>
    <path d="m658.56 94.31.52.3v55.02l47.95 27.68v.95l-.23.13-47.72-27.55v-1.21l-1.05-.6v-54.41l.52-.3zm48.99-29.84.52.3 47.94 27.68v1.21l1.05.61v55.71l-.53-.3-48.47 27.99v-.35l47.94-27.68v-55.97l-.52-.3-47.64-27.5-.09-.05-.22-.12-48.24 27.85-.75-.43-.52.3v-.35l.22-.13.83-.48 47.95-27.68.52-.3z"></path>
    <path d="m886.57 0 15.62 9.02.82-.47v-.27l-14.34-8.28zm31.83 0-14.34 8.28v.87l-.26.15-.26-.45.26.45-.55.32.29.17 16.96-9.79z"></path>
    <path d="m805.24 9.28.83.48 47.41 27.37.53.31v-.35l-48.47-27.98-.31.18zm-.22-9.28v7.59l.52.3.52-.3v-7.59h-1.05zm97.99 0v8.55l-.82.47-47.34 27.33.22.13v.96l.53-.31 47.65-27.51.55-.32.26-.15v-9.15z"></path>
    <path d="m854.01 37.44v-.35l-48.47-27.98-.31.18-.22.13-47.94 27.68v55.97l.83.48 47.11 27.2.52.3.52-.3 47.95-27.68v-55.61zm-48.47-29.55 1.05.6 48.25 27.86.22.12v57.18l-.26.15-.26-.46.26.46-48.51 28-.23.13-.52.3-48.47-27.98-1.05-.61v-57.18l.52-.3 47.64-27.5.31-.18 1.05-.6z"></path>
    <path d="m560.58 150.88.52.3v55.02l47.95 27.68v.95l-.23.13-48.77-28.16v-55.62l.52-.3zm48.99-29.84.3.17 1.05.6 47.12 27.21 1.05.61v57.18l-.26.15-.26-.45.26.45-.56.32-48.17 27.81v-1.21l47.12-27.2.82-.48v-55.97s-47.94-27.68-47.94-27.68l-.52-.3-.52.3-47.72 27.55-.75-.43-.52.3v-.35l49.52-28.59z"></path>
    <path d="m903 235.69v.35l-47.94 27.68v-.35zm-96.41-.56 47.64 27.51-.22.13v.95l-47.94-27.68v-.61zm47.94-85.46 1.05.61 47.42 27.38v1.21l1.05.6v54.76l-.22.13-.3-.17-.3.17-.23-.13v-55.36l-47.94-27.68-.53-.3-.52.3-47.94 27.68v55.36-55.97l-.52-.3.52-.3 47.42-27.38 1.05-.61z"></path>
    <path d="m904.05 288v-52.31zm0-53.78-.23.13 1.05.6 47.65-27.51-1.05-.61-47.42 27.38zm48.47-26.77 48.47 27.98v52.57h1.05v-53.17l-48.47-27.98-1.05.61z"></path>
    <path d="m854.24 262.64-.22.13v25.23h1.05v-24.63l47.95-27.68v-.26l-.82-.48-47.94 27.68zm48.99-28.29.83.48v.86l47.94 27.68v24.63h1.05v-25.23l-48.17-27.81-1.05-.61-.3-.17z"></path>
    <path d="m903.01 121.68v.61l1.05.6v55.36l47.95 27.68.52.3.52-.3 47.94-27.68v-55.36l.79-.45-.15-.26.15.26.26-.15v-.35 56.92l-.26.15-.26-.45.26.45-48.21 27.83-1.05.61-1.05-.61-.3-.17-47.12-27.2-1.05-.61v-57.18zm48.99-28.29v.26l48.77 28.16-.3.17-47.94-27.68-47.64 27.51-.3.17-.52-.3v-.6l47.95-27.68z"></path>
    <path d="m952.52 37.73.52.3v55.02l47.95 27.68v.95l-.23.13-48.77-28.16v-55.62l.52-.3zm48.99-29.84 49.52 28.59v57.18l-.26.15-.26-.45.26.45-48.73 28.14v-1.21l47.94-27.68v-55.97l-48.47-27.99-48.24 27.86-.75-.43-.52.3v-.35l49.52-28.59z"></path>
    <path d="m561.1 151.18-.52-.3-.52.3-47.95 27.68v55.97l48.47 27.98 48.24-27.85.22-.13v-55.97zm-.52-1.51.75.43 47.72 27.55 1.05.61v57.18l-.26.15-.26-.45.26.45-49.26 28.44-49.06-28.32.2-.11-.26-.45.26.45.26-.15v-57.18l-.46-.27 48.54-28.02.52-.3z"></path>
    <path d="m953.05 38.04-.52-.3-.52.3-47.95 27.68v55.97l.52.3 47.95 27.68.3-.17 47.65-27.51.3-.17.22-.13v-55.97zm-.52-1.51.75.43 48.77 28.16v57.18l-.26.15-.15-.26-.11-.19.11.19.15.26-.79.45-47.95 27.68-.52.3-.52-.3-47.95-27.68-1.05-.6v-57.18l.52-.3 48.47-27.98.52-.3z"></path>
    <path d="m365.52 263.76 41.98 24.24h.6l-42.28-24.41zm-44.67 24.24h.6l42.5-24.54v-.35l-43.1 24.88z"></path>
    <path d="m267.01 263.72v.95l40.4 23.33h2.1l-42.28-24.41zm54.44 24.28h2.1l40.4-23.33v-1.21zm-54.44-80.51s0 0 0 0zm-.26.16-.79.45v54.4l.52.3.52-.3v-55.01l-.26.15-.26-.45.26.45zm.26-1.37v1.21l47.94-27.68v-.6l-.53-.31zm48.99-27.07v.6l47.94 27.68v-.6l.52-.3-47.94-27.68-.53.31z"></path>
    <path d="m168.71 207.58.04.08.05-.02 47.64 27.5-.31.18-47.64-27.5.26-.15-.04-.08zm97.46-56.52.83.48v55.97l-.26.15-.26-.45.26.45-.79.46-47.12 27.2-.83-.48v-.25l47.95-27.68v-55.71l.22-.12zm-49.21-29.02v.25l48.47 27.98-.31.18-47.64-27.5-47.64 27.5-1.05-.61 48.16-27.81z"></path>
    <path d="m169.02 263.72v.35l47.95-27.68v-.35zm48.99-27.34 47.94 27.68v23.93h1.05v-24.28l-.52.3-48.47-27.98z"></path>
    <path d="m216.44 235.13.52.3v.6l-47.94 27.68v-.26l-48.46-27.98.3-.17 47.64 27.51 47.64-27.51.31-.18zm-49.3-84.68.83.48v.25l-47.94 27.68v55.36l-.83.48-.22-.13v-56.32l48.16-27.81zm1.36-.78.3.18 1.05.61 47.64 27.5-.52.3v.61l-47.94-27.68v-.85l-.83-.48.31-.18z"></path>
    <path d="m168.71 207.58.09.05-.05.02-.04-.08zm-.22-.13.22.13.04.08-.26.15-47.64 27.5-.3.17-.31-.18 48.24-27.85zm-48.99-85.71 48.69 28.11.83.48v56.22l-.52-.3-.52.3v-55.61l-.83-.48-47.64-27.5-48.47 27.98v55.97l47.95 27.68.22.13-.22.13v.35l-.53.31-48.46-27.98v-57.18l49.52-28.59z"></path>
    <path d="m118.98 236.39v51.61h1.05v-51.61l-.52-.3-.52.3zm97.99-.35v51.96h1.05v-51.96l-1.05-.61zm-48.99-29.5-47.94 27.68-.83.48-.22.13v.35l.52-.3.75.43 48.25-27.85.22.13.09.05 47.64 27.51.52.3v-1.21l-47.94-27.68-.52-.3-.53.3z"></path>
    <path d="m316 66.68v55.7l47.94 27.68v.27l-.82.47-48.18-27.82v-.09l.79-.45-.26-.45.26.45.26-.15v-55.61zm48.47-29.46 49.52 28.59v57.18l-.26.15-.26-.45.26.45-49.26 28.44-.29-.17.55-.32-.26-.45.26.45.26-.15v-.87l47.94-27.68v-55.97l-48.47-27.98-47.65 27.51-.82-.47v-.27l48.47-27.99z"></path>
    <path d="m266.48 150.88 48.47 27.98v.35l-.53-.31-47.41-27.37-.83-.48.31-.18zm48.25-85.29.22.13v.96l-47.95 27.68v55.01l-.52.3-.52-.3v-55.61l48.77-28.16zm1.27-.13.82.47 48.18 27.81v57.18l-.26.15-.26-.45.26.45-.55.32-47.64 27.51-.53.31v-.96l-.22-.13 47.34-27.34.82-.47v-55.97l-47.94-27.68v-1.21z"></path>
    <path d="m266.48 36.52 49.52 28.59v.09.27 1.21 55.61l-.26.15-.26-.45.26.45-.79.45-47.42 27.38-1.05-.6.53-.3 47.94-27.69v-55-.96l-.22-.13-48.25-27.86-48.47 27.99v55.96l47.95 27.69.52.3-1.05.6-48.47-27.98v-.25-56.93z"></path>
    <path d="m314.95 179.22v-.35l-48.47-27.98-.31.18-.22.12-47.94 27.68v55.97l.83.48 47.11 27.2.52.3.52-.3 47.95-27.68v-55.61zm-48.47-29.55 1.05.6 48.25 27.86.22.13v57.18l-.26.15-.26-.46.26.46-48.51 28-.23.13-.52.3-48.47-27.98-1.05-.61v-57.18l.52-.3 47.64-27.5.31-.18z"></path>
    <path d="m69.99 264.33v23.67h1.05v-23.67l-.52-.3-.52.3zm48.99-29.15-.53.31-47.64 27.51 1.05.6 47.12-27.21.52-.3.52.3 47.95 27.68v23.93h1.05v-24.54l-48.46-27.98-.31-.18-.75-.43-.52.3z"></path>
    <path d="m26.88 288h2.1l41.01-23.67.52-.31.52.31 41.01 23.67h2.09l-42.27-24.41-1.05-.6-.3-.18z"></path>
    <path d="m363.95 264.67v23.33h1.05v-23.33l-1.05-.61zm98.77-.45-.78.45v23.33h1.05v-23.93l-.26.15-.15-.26.15.26zm.26-.15v-.35zm-97.99-1.21v.6l.52.3.3-.17 47.65-27.51 47.95 27.68.3-.17-48.77-28.16v-.26l-47.94 27.68z"></path>
    <path d="m412.94 178.6-48.47 27.99-.53.3v.61 55.62.34.61l1.05.6 40.41 23.33h2.1l-41.98-24.24-.53-.3v-.6-55.36l47.95-27.69.52-.3.53.3 47.94 27.69v55.01.95l-.22.13-.3.17-41.98 24.24h2.1l40.4-23.33.79-.45.26-.15v-.35-1.21-55.62l-48.77-28.16-.75-.43z"></path>
    <path d="m854.54 206.5h-.53v-56.27l-48.47-27.98-48.47 27.98v55.97l48.47 27.98 48.73-28.13.27.45h-.53.53l.26.45-49.26 28.44-49.51-28.59v-57.18l49.51-28.58 49.52 28.58v57.18l-.26.15z"></path>
    <path d="m805.54 121.99h-.52v-56.27l-48.47-27.99-48.47 27.99v55.96l48.47 27.99 48.73-28.14.26.46h-.52.52l.27.45-49.26 28.44-49.52-28.59v-57.18l49.52-28.59 49.52 28.59v57.18l-.26.15z"></path>
    <path d="m691.18 0 15.85 9.15v55.97l-48.47 27.98-48.47-27.98v-55.97l15.86-9.15h-2.1l-14.8 8.55v57.18l49.51 28.58 49.26-28.43-.26-.46.26.46.26-.15v-57.18l-14.8-8.55z"></path>
    <path d="m707.56 178.56h-.53v-56.27l-48.47-27.98-48.47 27.98v55.97l48.47 27.98 48.73-28.13.27.45h-.53.53l.26.45-49.26 28.44-49.51-28.59v-57.18l49.51-28.58 49.52 28.58v57.18l-.26.15z"></path>
    <path d="m658.56 93.35h-.52v-56.26l-48.47-27.99-48.47 27.99v55.96l48.47 27.98 48.73-28.13.26.45h-.52.52l.27.46-49.26 28.44-49.52-28.59v-57.18l49.52-28.59 49.52 28.59v57.18l-.26.15z"></path>
    <path d="m593.19 0 15.86 9.15v55.97l-48.47 27.98-48.47-27.98v-55.97l15.85-9.15h-2.1l-14.8 8.55v57.18l49.52 28.58 49.25-28.43-.26-.46.26.46.26-.15v-57.18l-14.8-8.55z"></path>
    <path d="m658.56 149.93h-.52v-56.27l-48.47-27.99-48.47 27.99v55.96l48.47 27.99 48.73-28.14.26.46h-.52.52l.27.45-49.26 28.44-49.52-28.59v-57.18l49.52-28.59 49.52 28.59v57.18l-.26.15z"></path>
    <path d="m805.02 0v8.55l-48.47 27.98-48.47-27.98v-8.55h-1.05v9.15l49.52 28.59 49.26-28.44-.27-.45.27.45.26-.15v-9.15z"></path>
    <path d="m721.22 0-13.66 7.89-13.67-7.89h-2.1l15.77 9.1 15.76-9.1z"></path>
    <path d="m756.55 93.35h-.52v-56.26l-48.48-27.99-48.46 27.99v55.96l48.46 27.98 48.74-28.13.26.45h-.52.52l.26.46-49.26 28.44-49.51-28.59v-57.18l49.51-28.59 49.52 28.59v57.18l-.26.15z"></path>
    <path d="m609.57 178.56h-.52v-56.27l-48.47-27.98-48.47 27.98v55.97l48.47 27.98 48.73-28.13.26.45h-.52.52l.26.45-49.25 28.44-49.52-28.59v-57.18l49.52-28.58 49.51 28.58v57.18l-.26.15z"></path>
    <path d="m560.58 206.5h-.53v-56.27l-48.47-27.98-48.47 27.98v55.97l48.47 27.98 48.73-28.13.27.45h-.53.53l.26.45-49.26 28.44-49.51-28.59v-57.18l49.51-28.58 49.52 28.58v57.18l-.26.15z"></path>
    <path d="m805.54 235.13h-.52v-56.27l-48.47-27.98-48.47 27.98v55.97l48.47 27.98 48.73-28.13.26.45h-.52.52l.27.45-49.26 28.44-49.52-28.59v-57.17l49.52-28.59 49.52 28.59v57.17l-.26.15z"></path>
    <path d="m707.56 235.13h-.53v-56.27l-48.47-27.98-48.47 27.98v55.97l48.47 27.98 48.73-28.13.27.45h-.53.53l.26.45-49.26 28.44-49.51-28.59v-57.17l49.51-28.59 49.52 28.59v57.17l-.26.15z"></path>
    <path d="m805.02 234.83v53.17h1.05v-52.57l48.46-27.98 48.48 27.98v52.57h1.04v-53.17l-49.52-28.59z"></path>
    <path d="m756.03 262.77v25.23h1.04v-24.62l48.47-27.99 48.47 27.99v24.62h1.05v-25.23l-49.52-28.59z"></path>
    <path d="m903.53 178.56h-.53v-56.27l-48.47-27.98-48.46 27.98v55.97l48.46 27.98 48.74-28.13.26.45h-.53.53l.26.45-49.26 28.44-49.51-28.59v-57.18l49.51-28.58 49.52 28.58v57.18l-.26.15z"></path>
    <path d="m952.52 93.35h-.52v-56.26l-48.47-27.99-48.47 27.99v55.96l48.47 27.98 48.73-28.13.26.45h-.52.52l.27.46-49.26 28.44-49.52-28.59v-57.18l49.52-28.59 49.52 28.59v57.18l-.26.15z"></path>
    <path d="m511.58 235.13h-.52v-56.27l-48.47-27.98-48.47 27.98v55.97l48.47 27.98 48.73-28.13.26.45h-.52.52l.27.45-49.26 28.44-49.52-28.59v-57.17l49.52-28.59 49.52 28.59v57.17l-.26.15z"></path>
    <path d="m903.53 121.99h-.53v-56.27l-48.47-27.99-48.46 27.99v55.96l48.46 27.99 48.74-28.14.26.46h-.53.53l.26.45-49.26 28.44-49.51-28.59v-57.18l49.51-28.59 49.52 28.59v57.18l-.26.15z"></path>
    <path d="m707.03 234.83v53.17h1.05v-52.57l48.47-27.98 48.47 27.98v52.57h1.05v-53.17l-49.52-28.59z"></path>
    <path d="m1113.49 0-13.99 8.07-13.98-8.07h-2.1l16.08 9.28 16.08-9.28z"></path>
    <path d="m1015.5 0-13.99 8.07-13.98-8.07h-2.1l16.08 9.28 16.09-9.28z"></path>
    <path d="m1245.96 0v36.66l-48.47 27.98-48.47-27.98v-36.66h-1.05v37.27l49.52 28.59 49.26-28.44-.27-.45.27.45.26-.15v-37.27z"></path>
    <path d="m1182.01 0 14.96 8.64v55.96l-48.47 27.99-48.47-27.99v-55.96l14.95-8.64h-2.09l-13.91 8.03v57.18l49.52 28.59 49.25-28.44-.26-.46.26.46.26-.15v-57.18l-13.91-8.03z"></path>
    <path d="m819.53 0-13.99 8.07-13.98-8.07h-2.1l16.08 9.28 16.08-9.28z"></path>
    <path d="m1147.97 0v36.66l-48.47 27.98-48.47-27.98v-36.66h-1.05v37.27l49.52 28.59 49.26-28.44-.26-.45.26.45.26-.15v-37.27z"></path>
    <g clip-path="url(#a)">
      <path d="m614.22 8.85c0 2.57-2.08 4.65-4.65 4.65s-4.65-2.08-4.65-4.65 2.08-4.65 4.65-4.65 4.65 2.08 4.65 4.65"></path>
      <path d="m614.84 119.78c0 2.57-2.08 4.65-4.65 4.65s-4.65-2.08-4.65-4.65 2.08-4.65 4.65-4.65 4.65 2.08 4.65 4.65"></path>
      <path d="m467.24 149.93c0 2.57-2.08 4.65-4.65 4.65s-4.65-2.08-4.65-4.65 2.08-4.65 4.65-4.65 4.65 2.08 4.65 4.65"></path>
      <path d="m516.28 233.79c0 2.57-2.08 4.65-4.65 4.65s-4.65-2.08-4.65-4.65 2.08-4.65 4.65-4.65 4.65 2.08 4.65 4.65"></path>
      <path d="m565.45 149.71c0 2.57-2.08 4.65-4.65 4.65s-4.65-2.08-4.65-4.65 2.08-4.65 4.65-4.65 4.65 2.08 4.65 4.65"></path>
      <path d="m712.32 121.88c0 2.57-2.08 4.65-4.65 4.65s-4.65-2.08-4.65-4.65 2.08-4.65 4.65-4.65 4.65 2.08 4.65 4.65"></path>
      <path d="m761.9 206.59c0 2.57-2.08 4.65-4.65 4.65s-4.65-2.08-4.65-4.65 2.08-4.65 4.65-4.65 4.65 2.08 4.65 4.65"></path>
      <path d="m956.94 36.16c0 2.57-2.08 4.65-4.65 4.65s-4.65-2.08-4.65-4.65 2.08-4.65 4.65-4.65 4.65 2.08 4.65 4.65"></path>
      <path d="m810.11 65.1c0 2.57-2.08 4.65-4.65 4.65s-4.65-2.08-4.65-4.65 2.08-4.65 4.65-4.65 4.65 2.08 4.65 4.65"></path>
      <path d="m810.11 121.88c0 2.57-2.08 4.65-4.65 4.65s-4.65-2.08-4.65-4.65 2.08-4.65 4.65-4.65 4.65 2.08 4.65 4.65"></path>
      <path d="m908.72 233.79c0 2.57-2.08 4.65-4.65 4.65s-4.65-2.08-4.65-4.65 2.08-4.65 4.65-4.65 4.65 2.08 4.65 4.65"></path>
      <path d="m712.32 8.58c0 2.57-2.08 4.65-4.65 4.65s-4.65-2.08-4.65-4.65 2.08-4.65 4.65-4.65 4.65 2.08 4.65 4.65"></path>
      <path d="m516.28 8.58c0 2.57-2.08 4.65-4.65 4.65s-4.65-2.08-4.65-4.65 2.08-4.65 4.65-4.65 4.65 2.08 4.65 4.65"></path>
    </g>
  </g>
</svg>
