<?xml version="1.0" encoding="UTF-8"?>
<svg xmlns="http://www.w3.org/2000/svg" id="Layer_2" viewBox="0 0 502.1 163.5">
  <defs>
    <style>.cls-1{fill:#fb958a;}.cls-2{fill:#060c3b;}.cls-3{fill:#85c9ce;}</style>
  </defs>
  <g id="Layer_1-2">
    <g>
      <polygon class="cls-3" points="54.9 98.1 54.9 40.6 107.4 69.7 107.4 128.5 54.9 98.1"></polygon>
      <polygon class="cls-1" points="0 132.9 53.7 101.6 106.7 132.9 53.7 163.5 0 132.9"></polygon>
      <polygon class="cls-2" points="0 129.2 0 29.7 51.7 0 51.7 98.8 0 129.2"></polygon>
      <path class="cls-2" d="M212.4,104.4c0-10-1.6-17.3-4.7-21.8-3.2-4.6-7.9-6.9-14.2-6.9-8.4,0-14.2,3.4-17.3,10.3v39c3.2,6.9,9.1,10.4,17.5,10.4s14.1-4.2,16.8-12.6c1.3-4,1.9-10.2,1.9-18.4Zm26.4,1.9c0,15.8-3.4,28.2-10.1,37.1-6.8,8.8-16.2,13.2-28.3,13.2-10.7,0-19.3-4.1-25.7-12.3l-1.2,10.5h-23.7V14.6h26.4v50.3c6.1-7.1,14.1-10.7,24-10.7,12.1,0,21.5,4.4,28.3,13.3,6.9,8.8,10.3,21.3,10.3,37.3v1.5Z"></path>
      <rect class="cls-2" x="256.5" y="14.6" width="26.5" height="140.2"></rect>
      <path class="cls-2" d="M327.1,106.4c0,9.4,1.8,16.6,5.3,21.5s8.6,7.4,15.2,7.4,11.4-2.4,15-7.3c3.6-4.9,5.4-12.8,5.4-23.6,0-9.2-1.8-16.3-5.4-21.4-3.6-5.1-8.6-7.6-15.2-7.6s-11.4,2.5-15,7.6c-3.5,5.1-5.3,12.9-5.3,23.4Zm-26.4-1.9c0-9.8,1.9-18.5,5.7-26.2,3.8-7.7,9.2-13.6,16.2-17.8,7.1-4.2,15.4-6.3,24.7-6.3,13.3,0,24.2,4.1,32.6,12.2,8.5,8.2,13.2,19.2,14.2,33.2l.2,6.8c0,15.2-4.2,27.3-12.7,36.5-8.5,9.1-19.8,13.7-34.1,13.7s-25.6-4.6-34.1-13.7c-8.5-9.1-12.7-21.5-12.7-37.2v-1.2h0Z"></path>
      <polygon class="cls-2" points="446.4 115.2 436.9 124.7 436.9 154.8 410.5 154.8 410.5 14.6 436.9 14.6 436.9 92.3 442 85.7 467.3 56 499 56 463.3 97.2 502.1 154.8 471.8 154.8 446.4 115.2"></polygon>
    </g>
  </g>
</svg>
