<?xml version="1.0" encoding="UTF-8"?>
<svg xmlns="http://www.w3.org/2000/svg" xmlns:xlink="http://www.w3.org/1999/xlink" viewBox="0 0 20 20">
  <clipPath id="a">
    <path d="m0 0h20v20h-20z"></path>
  </clipPath>
  <g clip-path="url(#a)">
    <path d="m20 10c0 5.52-4.48 10-10 10s-10-4.48-10-10 4.48-10 10-10 10 4.48 10 10" fill="#fb958a"></path>
    <path d="m7.81 13.82h3.64v3.07h-3.64zm.34-2.34c0-1.64 1.02-2.56 1.85-3.41.55-.58 1-1.11 1-1.79 0-.55-.36-.81-.89-.81-.85 0-1.47.94-1.77 1.77l-2.81-.98c.73-2.17 2.34-3.58 4.82-3.58 2.62 0 3.86 1.49 3.86 3.28s-.87 2.54-1.68 3.37c-1.22 1.26-1.45 1.64-1.45 3.28h-2.88c-.06-.45-.06-.75-.06-1.13" fill="#fff"></path>
  </g>
</svg>
