<?xml version="1.0" encoding="UTF-8"?>
<svg xmlns="http://www.w3.org/2000/svg" xmlns:xlink="http://www.w3.org/1999/xlink" id="Layer_2" viewBox="0 0 10 10.29">
  <defs>
    <style>.cls-1{fill:none;}.cls-2{clip-path:url(#clippath);}.cls-3{fill:#fff;}.cls-4{fill:#2d2e47;}</style>
    <clipPath id="clippath">
      <rect class="cls-1" width="10" height="10.29"></rect>
    </clipPath>
  </defs>
  <g id="Layer_1-2">
    <g class="cls-2">
      <path class="cls-4" d="m10,5.14c0,2.84-2.24,5.14-5,5.14S0,7.99,0,5.14,2.24,0,5,0s5,2.3,5,5.14"></path>
      <path class="cls-3" d="m4.14,2.47c0-.22.08-.4.24-.54.16-.14.37-.21.61-.21s.46.07.62.21c.16.14.24.32.24.54s-.08.4-.24.54c-.16.14-.36.21-.62.21s-.45-.07-.61-.21c-.16-.14-.24-.32-.24-.54m.87,6.05c-.31,0-.57,0-.8.02-.22,0-.44.02-.64.04-.02-.07-.02-.13-.02-.2,0-.05.01-.08.04-.1.03-.02.06-.03.09-.04.25-.04.43-.09.52-.13.1-.05.14-.12.14-.23v-2.72c0-.21-.04-.36-.12-.47-.08-.11-.27-.18-.56-.2-.1-.01-.16-.07-.16-.16v-.08s0-.06.02-.09c.05,0,.12,0,.21,0,.09,0,.19,0,.29-.01.1,0,.21,0,.31-.01.1,0,.2-.01.28-.02.2-.02.39-.05.57-.08.18-.03.31-.05.37-.05.13,0,.19.05.19.15,0,.08-.01.18-.03.3-.03.12-.04.3-.04.52v2.94c0,.1.05.18.16.23.1.05.27.09.51.13.09.01.13.06.13.13v.1s0,.07-.02.09c-.2-.01-.41-.03-.64-.04-.23-.01-.5-.02-.81-.02"></path>
    </g>
  </g>
</svg>
