<?xml version="1.0" encoding="UTF-8"?>
<svg xmlns="http://www.w3.org/2000/svg" xmlns:xlink="http://www.w3.org/1999/xlink" id="Layer_1" viewBox="0 0 1920 1080">
  <defs>
    <style>.cls-1{fill:none;}.cls-2{clip-path:url(#clippath);}.cls-3{fill:#fa948a;}.cls-4{fill:#050d3b;}.cls-5{fill:#85c9cf;}.cls-6{clip-path:url(#clippath-1);}.cls-7{clip-path:url(#clippath-4);}.cls-8{clip-path:url(#clippath-3);}.cls-9{clip-path:url(#clippath-2);}.cls-10{clip-path:url(#clippath-7);}.cls-11{clip-path:url(#clippath-8);}.cls-12{clip-path:url(#clippath-6);}.cls-13{clip-path:url(#clippath-5);}.cls-14{clip-path:url(#clippath-9);}</style>
    <clipPath id="clippath">
      <rect class="cls-1" x="-157.72" y="-1683.33" width="4514.74" height="3192.33"></rect>
    </clipPath>
    <clipPath id="clippath-1">
      <rect class="cls-1" x="-157.72" y="-1683.33" width="4514.74" height="3192.33"></rect>
    </clipPath>
    <clipPath id="clippath-2">
      <rect class="cls-1" x="-157.72" y="-1683.33" width="4514.74" height="3192.33"></rect>
    </clipPath>
    <clipPath id="clippath-3">
      <rect class="cls-1" x="-157.72" y="-1683.33" width="4514.74" height="3192.33"></rect>
    </clipPath>
    <clipPath id="clippath-4">
      <rect class="cls-1" x="-157.72" y="-1683.33" width="4514.74" height="3192.33"></rect>
    </clipPath>
    <clipPath id="clippath-5">
      <rect class="cls-1" x="-157.72" y="-1683.33" width="4514.74" height="3192.33"></rect>
    </clipPath>
    <clipPath id="clippath-6">
      <rect class="cls-1" x="-157.72" y="-1683.33" width="4514.74" height="3192.33"></rect>
    </clipPath>
    <clipPath id="clippath-7">
      <rect class="cls-1" x="-157.72" y="-1683.33" width="4514.74" height="3192.33"></rect>
    </clipPath>
    <clipPath id="clippath-8">
      <rect class="cls-1" x="-157.72" y="-1683.33" width="4514.74" height="3192.33"></rect>
    </clipPath>
    <clipPath id="clippath-9">
      <rect class="cls-1" x="-157.72" y="-1683.33" width="4514.74" height="3192.33"></rect>
    </clipPath>
  </defs>
  <g class="cls-2">
    <path class="cls-4" d="m974.32,620.42v-13.94h10.73c2.68,0,4.83.54,6.44,1.61,1.61,1.07,2.14,2.68,2.14,5.36h0c0,2.14-.54,3.75-2.14,4.83-1.61,1.07-3.75,2.14-6.44,2.14h-10.73Zm-10.73,25.2h10.73v-16.09h8.58l10.73,16.09h12.87l-12.33-17.7c3.22-1.07,5.9-3.22,7.51-5.36,2.14-2.68,2.68-5.9,2.68-9.65h0c0-4.83-1.61-8.58-4.29-11.26-3.22-3.22-8.04-4.83-14.48-4.83h-22.52v48.8h.54Zm-36.47-20.38l6.44-16.09,6.44,16.09h-12.87Zm-19.84,20.38h11.26l4.29-11.26h20.91l4.29,11.26h11.26l-21.45-49.87h-10.19l-20.38,49.87Zm-39.68,0h37.54v-9.65h-26.81v-10.19h23.6v-9.65h-23.6v-10.19h26.81v-9.65h-37.54v49.34Zm-33.25,0h10.73v-19.84l19.31-30.03h-12.33l-11.8,19.84-11.8-19.84h-12.87l19.31,30.03v19.84h-.54Zm-67.03-25.2v-13.94h10.73c2.68,0,4.83.54,6.44,1.61,1.61,1.07,2.14,2.68,2.14,5.36h0c0,2.14-.54,3.75-2.14,4.83s-3.75,2.14-6.44,2.14h-10.73Zm-10.73,25.2h10.73v-16.09h8.58l10.73,16.09h12.87l-12.33-17.7c3.22-1.07,5.9-3.22,7.51-5.36,2.14-2.68,2.68-5.9,2.68-9.65h0c0-4.83-1.61-8.58-4.29-11.26-3.22-3.22-8.04-4.83-14.48-4.83h-22.52v48.8h.54Zm-44.51,0h37.54v-9.65h-26.81v-10.19h23.6v-9.65h-23.6v-10.19h26.81v-9.65h-37.54v49.34Zm-32.71.54h9.65l19.84-49.87h-11.8l-12.87,34.86-12.87-34.86h-11.8l19.84,49.87Zm-50.94-10.73c-1.61-1.07-3.22-2.14-4.83-3.22-1.61-1.61-2.14-3.22-3.22-4.83-.54-2.14-1.07-3.75-1.07-5.9h0c0-2.14.54-4.29,1.07-5.9.54-1.61,1.61-3.75,3.22-4.83,1.07-1.61,2.68-2.68,4.83-3.22,1.61-.54,3.75-1.07,5.9-1.07s4.29.54,5.9,1.07c1.61,1.07,3.22,2.14,4.83,3.22,1.61,1.61,2.14,3.22,3.22,4.83.54,2.14,1.07,3.75,1.07,5.9h0c0,2.14-.54,4.29-1.07,5.9-.54,1.61-1.61,3.75-3.22,4.83-1.07,1.61-2.68,2.68-4.83,3.22-1.61,1.07-3.75,1.07-5.9,1.07s-4.29-.54-5.9-1.07m16.09,9.12c3.22-1.61,5.9-3.22,8.58-5.36,2.14-2.14,4.29-4.83,5.36-8.04s2.14-6.44,2.14-10.19h0c0-3.75-.54-6.97-2.14-10.19-1.07-3.22-3.22-5.9-5.36-8.04-2.14-2.14-5.36-4.29-8.58-5.36-3.22-1.61-6.97-2.14-10.73-2.14s-7.51.54-10.73,2.14-5.9,3.22-8.58,5.36c-2.14,2.14-4.29,4.83-5.36,8.04s-2.14,6.44-2.14,10.19h0c0,3.75.54,6.97,2.14,10.19,1.07,3.22,3.22,5.9,5.36,8.04s5.36,4.29,8.58,5.36c3.22,1.61,6.97,2.14,10.73,2.14s7.51-.54,10.73-2.14m-87.41-24.13v-13.94h10.73c2.68,0,4.83.54,6.44,1.61,1.61,1.07,2.14,2.68,2.14,5.36h0c0,2.14-.54,3.75-2.14,4.83s-3.75,2.14-6.44,2.14h-10.73Zm-11.26,25.2h10.73v-16.09h8.58l10.73,16.09h12.87l-11.8-17.7c3.22-1.07,5.9-3.22,7.51-5.36,2.14-2.68,2.68-5.9,2.68-9.65h0c0-4.83-1.61-8.58-4.29-11.26-3.22-3.22-8.04-4.83-14.48-4.83h-22.52v48.8Zm-35.93-20.38l6.44-16.09,6.44,16.09h-12.87Zm-19.84,20.38h11.26l4.29-11.26h20.91l4.29,11.26h11.26l-21.45-49.87h-10.19l-20.38,49.87Zm-39.68,0h37.54v-9.65h-26.81v-10.19h23.6v-9.65h-23.6v-10.19h26.81v-9.65h-37.54v49.34Zm-33.25,0h10.73v-19.84l19.31-30.03h-12.33l-11.8,19.84-11.8-19.84h-12.87l19.31,30.03-.54,19.84h0Z"></path>
  </g>
  <g class="cls-6">
    <path class="cls-4" d="m930.35,559.83h21.99v-39.68h40.22v39.68h21.99v-99.21h-21.99v39.15h-40.22v-39.15h-21.99v99.21Zm-58.45,0h21.99v-79.37h30.03v-20.38h-82.58v20.38h30.03l.54,79.37h0Zm-150.15,1.07h18.77l22.52-64.89,22.52,64.89h18.77l33.78-100.28h-23.06l-20.38,67.57-22.52-67.57h-18.23l-22.52,67.57-20.38-67.57h-23.6l34.32,100.28Zm-97.06-21.99c-3.75-1.61-6.97-3.75-9.65-6.97-2.68-2.68-4.83-5.9-6.44-10.19s-2.14-8.04-2.14-11.8h0c0-4.29.54-8.04,2.14-11.8,1.61-3.75,3.75-6.97,5.9-9.65,2.68-2.68,5.9-4.83,9.12-6.44,3.75-1.61,7.51-2.14,12.33-2.14,4.29,0,8.58,1.07,12.33,2.68s6.97,3.75,9.65,6.97c2.68,2.68,4.83,5.9,6.44,10.19,1.61,3.75,2.14,8.04,2.14,12.33v.54c0,4.29-.54,8.04-2.14,11.8-1.61,3.75-3.75,6.97-5.9,9.65-2.68,2.68-5.9,4.83-9.65,6.44-3.75,1.61-7.51,2.14-12.33,2.14-3.75-1.07-8.04-2.14-11.8-3.75m33.25,18.77c6.44-2.68,11.8-6.44,16.62-11.26,4.83-4.83,8.58-10.19,11.26-16.09s3.75-12.87,3.75-19.84v-.54c0-6.97-1.07-13.94-3.75-19.84-2.68-6.44-6.44-11.8-10.73-16.09-4.83-4.83-10.19-8.04-16.62-10.73-6.44-2.68-13.41-4.29-20.91-4.29s-14.48,1.61-21.45,4.29c-6.44,2.68-12.33,6.44-16.62,11.26-4.83,4.83-8.58,10.19-11.26,16.09-2.68,6.44-3.75,12.87-3.75,19.84v.54c0,6.97,1.07,13.94,3.75,19.84,2.68,6.44,6.44,11.8,10.73,16.09,4.83,4.83,10.19,8.04,16.62,10.73s13.41,4.29,20.91,4.29c8.04,0,15.02-1.61,21.45-4.29m-140.5-48.8v-28.42h21.99c5.36,0,9.65,1.07,12.87,3.75,3.22,2.14,4.29,5.9,4.29,10.73v.54c0,4.29-1.61,7.51-4.29,10.19s-6.97,3.75-12.33,3.75h-22.52s0-.54,0-.54Zm-21.99,50.94h21.99v-31.64h17.16l21.45,31.64h25.74l-24.13-35.39c6.44-2.14,11.26-5.9,15.55-11.26,3.75-4.83,5.9-11.8,5.9-19.84v-.54c0-9.65-2.68-17.16-8.58-22.52-6.97-6.97-16.62-10.19-28.96-10.19h-45.58v99.74h-.54Zm-31.64-2.68c6.97-3.22,12.87-6.97,18.23-11.26v-42.9h-42.9v18.77h21.99v13.94c-5.36,3.75-12.33,5.9-20.38,5.9-4.29,0-8.58-.54-12.33-2.14-3.75-1.61-6.97-3.75-9.65-6.44s-4.83-6.44-6.44-10.19c-1.61-3.75-2.15-8.04-2.15-12.33v-.54c0-4.29.54-8.04,2.15-11.8s3.75-6.97,5.9-9.65c2.68-2.68,5.9-4.83,9.12-6.44s6.97-2.68,11.26-2.68c2.68,0,5.36,0,8.04.54,2.15.54,4.83,1.07,6.44,2.14,2.15,1.07,3.75,2.14,5.9,3.22s3.75,2.68,5.9,4.29l13.94-16.62c-2.68-2.14-5.36-4.29-8.04-5.9-2.68-1.61-5.9-3.22-8.58-4.29-3.22-1.07-6.44-2.14-10.19-2.68-3.75-.54-7.51-1.07-12.33-1.07-7.51,0-14.48,1.61-20.91,4.29-6.44,2.68-11.8,6.44-16.62,11.26-4.83,4.83-8.04,10.19-10.73,16.09-2.68,6.44-3.75,12.87-3.75,19.84v.54c0,7.51,1.07,13.94,3.75,20.38,2.68,6.44,5.9,11.8,10.73,16.09s10.19,8.04,16.62,10.73,13.41,3.75,21.45,3.75c8.58,0,16.62-1.61,23.6-4.83"></path>
  </g>
  <g class="cls-9">
    <path class="cls-5" d="m1002.2,371.07c-3.75-5.36-5.36-11.26-5.36-18.23v-.54c0-6.97,1.61-12.87,4.83-18.23,3.22-5.36,8.04-7.51,14.48-7.51,5.9,0,10.73,2.68,14.48,8.04s5.36,11.26,5.36,18.23v.54c0,6.97-1.61,12.87-4.83,18.23s-8.04,8.04-14.48,8.04c-5.9-1.07-10.73-3.22-14.48-8.58m34.86,30.57c6.44-2.68,11.8-6.44,16.09-11.8,4.29-4.83,8.04-10.73,10.73-17.16s3.75-13.41,3.75-20.91v-.54c0-7.51-1.07-14.48-3.75-20.91-2.14-6.44-5.9-11.8-10.19-16.62-4.29-4.83-9.65-8.58-16.09-11.26s-12.87-4.29-20.91-4.29c-7.51,0-14.48,1.61-20.91,4.29s-11.8,6.44-16.09,11.8c-4.29,4.83-8.04,10.73-10.73,17.16s-3.75,13.41-3.75,20.91v.54c0,7.51,1.07,14.48,3.75,20.91,2.14,6.44,5.9,11.8,10.19,16.62,4.29,4.83,9.65,8.58,16.09,11.26s12.87,4.29,20.91,4.29,14.48-1.07,20.91-4.29m-95.45-111l-83.66,113.15h35.39l69.18-97.06,83.66-113.15h-35.39l-69.18,97.06Zm-40.22-63.81c3.75,5.36,5.36,11.26,5.36,18.23v.54c0,6.97-1.61,12.87-4.83,18.23-3.22,5.36-8.04,8.04-14.48,8.04-5.9,0-10.73-2.68-14.48-8.04-3.75-5.36-5.36-11.26-5.36-18.23v-.54c0-6.97,1.61-12.87,4.83-18.23,3.22-4.83,8.04-7.51,14.48-7.51,6.44-.54,11.26,2.14,14.48,7.51m6.44,67.57c6.44-2.68,11.8-6.44,16.09-11.8,4.29-4.83,8.04-10.73,10.73-17.16,2.68-6.44,3.75-13.41,3.75-20.91v-.54c0-7.51-1.07-14.48-3.75-20.91-2.14-6.44-5.9-11.8-10.19-16.62-4.29-4.83-9.65-8.58-16.09-11.26s-12.87-4.29-20.91-4.29-14.48,1.61-20.91,4.29-11.8,6.44-16.09,11.8c-4.29,4.83-8.04,10.73-10.73,17.16-2.68,6.44-3.75,13.41-3.75,20.91v.54c0,7.51,1.07,14.48,3.75,20.91,2.14,6.44,5.9,11.8,10.19,16.62,4.29,4.83,9.65,8.58,16.09,11.26s12.87,4.29,20.91,4.29,15.02-1.07,20.91-4.29m-188.76,65.96c-5.9-3.22-10.73-8.04-14.48-13.94-3.75-5.9-6.97-12.87-9.12-20.91-2.14-8.04-3.22-17.16-3.22-26.81v-.54c0-9.65,1.07-18.23,3.22-26.28,2.14-8.04,5.36-15.02,9.12-20.91,3.75-5.9,8.58-10.19,14.48-13.94,5.36-3.22,11.8-4.83,18.77-4.83s12.87,1.61,18.77,4.83,10.73,8.04,14.48,13.94c4.29,5.9,7.51,12.87,9.65,20.91,2.14,8.04,3.22,16.62,3.22,26.28v.54c0,9.65-1.07,18.23-3.22,26.28-2.14,8.04-5.36,15.02-9.12,20.91-3.75,5.9-8.58,10.19-14.48,13.94-5.36,3.22-11.8,4.83-18.77,4.83-6.97.54-13.41-1.07-19.31-4.29m56.84,38.61c11.26-5.36,21.45-13.41,29.49-23.06s14.48-21.45,18.77-34.32c4.29-13.41,6.97-27.35,6.97-42.36v-.54c0-15.02-2.14-29.49-6.97-42.36-4.29-13.41-10.73-24.67-18.77-34.32s-17.7-17.16-29.49-22.52c-11.26-5.36-24.13-8.04-38.07-8.04s-26.81,2.68-38.07,8.58c-11.26,5.36-21.45,13.41-29.49,23.06-8.04,9.65-14.48,21.45-18.77,34.32-4.29,13.41-6.97,27.35-6.97,42.36v.54c0,15.02,2.14,29.49,6.44,42.36,4.29,13.41,10.73,24.67,18.77,34.32s17.7,17.16,29.49,22.52c11.26,5.36,24.13,8.04,38.07,8.04s27.35-3.22,38.61-8.58m-254.19-38.61c-5.9-3.22-10.73-8.04-14.48-13.94-3.75-5.9-6.97-12.87-9.12-20.91-2.15-8.04-3.22-17.16-3.22-26.81v-.54c0-9.65,1.07-18.23,3.22-26.28,2.15-8.04,5.36-15.02,9.12-20.91s8.58-10.19,14.48-13.94c5.36-3.22,11.8-4.83,18.77-4.83s12.87,1.61,18.77,4.83c5.9,3.22,10.73,8.04,14.48,13.94,4.29,5.9,7.51,12.87,9.65,20.91,2.14,8.04,3.22,16.62,3.22,26.28v.54c0,9.65-1.07,18.23-3.22,26.28-2.14,8.04-5.36,15.02-9.12,20.91-3.75,5.9-8.58,10.19-14.48,13.94s-11.8,4.83-18.77,4.83-13.94-1.07-19.31-4.29m56.31,38.61c11.26-5.36,21.45-13.41,29.49-23.06s14.48-21.45,18.77-34.32c4.29-13.41,6.97-27.35,6.97-42.36v-.54c0-15.02-2.14-29.49-6.97-42.36-4.29-13.41-10.73-24.67-18.77-34.32s-17.7-17.16-29.49-22.52c-11.26-5.36-24.13-8.04-38.07-8.04s-26.81,2.68-38.07,8.58c-11.26,5.36-21.45,13.41-29.49,23.06-8.04,9.65-14.48,21.45-18.77,34.32-4.29,13.41-6.97,27.35-6.97,42.36v.54c0,15.02,2.15,29.49,6.44,42.36,4.29,13.41,10.73,24.67,18.77,34.32,8.04,9.65,17.7,17.16,29.49,22.52,11.26,5.36,24.13,8.04,38.07,8.04s27.35-3.22,38.61-8.58m-199.49,4.83h45.58v-211.28h-31.64l-60.06,18.23,9.65,37.54,36.47-9.12s0,164.63,0,164.63Z"></path>
  </g>
  <g class="cls-8">
    <path class="cls-5" d="m1520.23,813.48l-47.19-2.14c-4.29,0-7.51-4.83-7.51-10.19l-.54-481.56c0-5.36,3.75-10.19,8.04-10.19l47.73,1.07c4.29,0,7.51,4.29,7.51,10.19v482.63c0,5.9-3.22,10.73-8.04,10.19"></path>
  </g>
  <g class="cls-7">
    <path class="cls-5" d="m1430.14,813.48l-47.19-1.61c-4.29,0-7.51-3.22-7.51-7.51l-.54-388.25c0-4.29,3.75-7.51,8.04-7.51l47.73,1.07c4.29,0,7.51,3.22,7.51,7.51v388.79c0,4.29-3.75,7.51-8.04,7.51"></path>
  </g>
  <g class="cls-13">
    <path class="cls-5" d="m1341.65,813.48l-47.19-1.07c-4.29,0-7.51-2.68-7.51-5.9l-.54-324.43c0-3.22,3.75-5.9,8.04-5.9l47.73.54c4.29,0,7.51,2.68,7.51,5.9v324.97c0,3.75-3.75,5.9-8.04,5.9"></path>
  </g>
  <g class="cls-12">
    <path class="cls-5" d="m1252.1,813.48l-47.19-1.07c-4.29,0-7.51-3.22-7.51-6.44l-.54-352.86c0-3.75,3.75-6.44,8.04-6.44l47.73.54c4.29,0,7.51,2.68,7.51,6.44v353.39c0,3.75-3.22,6.44-8.04,6.44"></path>
  </g>
  <g class="cls-10">
    <path class="cls-5" d="m1164.15,813.48l-47.19-1.07c-4.29,0-7.51-2.14-7.51-4.83l-.54-290.65c0-2.68,3.75-4.83,8.04-4.83l47.73.54c4.29,0,7.51,2.14,7.51,4.83v290.65c0,3.22-3.75,5.36-8.04,5.36"></path>
  </g>
  <g class="cls-11">
    <path class="cls-3" d="m1649.47,492.26l-43.44-143.72c-1.61-4.29-6.97-5.9-10.19-3.22l-138.35,110.47c-4.29,3.75-2.68,10.73,2.68,11.8l46.12,8.58c4.29,1.07,6.97,5.9,4.83,9.65-45.05,84.73-111.54,151.22-198.41,197.88-80.44,43.44-179.11,70.79-292.8,80.44-127.63,11.26-246.68-2.68-314.25-13.41-3.75-.54-7.51,2.68-7.51,6.44v50.41c0,3.22,2.14,5.9,5.36,6.44,52.02,8.04,128.7,17.16,216.11,17.16,33.25,0,68.1-1.07,104.03-4.29,122.27-10.73,229.52-40.22,318-87.95,105.11-56.84,184.47-139.43,234.88-245.07,1.07-2.68,4.29-4.29,6.97-3.75l58.45,10.73c4.83,1.07,9.12-3.75,7.51-8.58"></path>
  </g>
  <rect class="cls-3" x="314.72" y="839.75" width="19.84" height="19.84"></rect>
  <rect class="cls-3" x="339.39" y="839.75" width="19.84" height="19.84"></rect>
  <rect class="cls-3" x="314.72" y="864.42" width="19.84" height="19.84"></rect>
  <rect class="cls-3" x="339.39" y="864.42" width="19.84" height="19.84"></rect>
  <polygon class="cls-4" points="337.25 765.21 431.09 859.06 488.47 859.06 440.21 810.26 440.21 707.3 399.99 707.3 399.99 770.04 337.25 707.3 202.65 841.9 202.65 957.19 335.64 957.19 375.86 1039.24 375.86 916.97 243.4 916.97 243.4 859.06 337.25 765.21"></polygon>
  <g class="cls-14">
    <path class="cls-4" d="m1670.38,86.31H285.77c-45.58,0-83.12,37-83.12,83.12v615.09l40.76-40.76V169.43c0-23.06,18.77-41.83,41.83-41.83h1385.15c23.06,0,41.83,18.77,41.83,41.83v705.18c0,23.06-18.77,41.83-41.83,41.83H416.08v40.76h1254.84c45.58,0,83.12-37,83.12-83.12V169.43c-.54-45.58-37.54-83.12-83.66-83.12"></path>
  </g>
</svg>
