<?xml version="1.0" encoding="UTF-8"?>
<svg xmlns="http://www.w3.org/2000/svg" xmlns:xlink="http://www.w3.org/1999/xlink" id="Layer_1" viewBox="0 0 1920 1080">
  <defs>
    <style>.cls-1{fill:none;}.cls-2{clip-path:url(#clippath);}.cls-3{fill:#fa948a;}.cls-4{fill:#050d3b;}.cls-5{fill:#fff;}.cls-6{fill:#85c9cf;}.cls-7{clip-path:url(#clippath-1);}.cls-8{clip-path:url(#clippath-4);}.cls-9{clip-path:url(#clippath-3);}.cls-10{clip-path:url(#clippath-2);}.cls-11{clip-path:url(#clippath-7);}.cls-12{clip-path:url(#clippath-8);}.cls-13{clip-path:url(#clippath-6);}.cls-14{clip-path:url(#clippath-5);}.cls-15{clip-path:url(#clippath-9);}.cls-16{clip-path:url(#clippath-20);}.cls-17{clip-path:url(#clippath-21);}.cls-18{clip-path:url(#clippath-24);}.cls-19{clip-path:url(#clippath-23);}.cls-20{clip-path:url(#clippath-22);}.cls-21{clip-path:url(#clippath-25);}.cls-22{clip-path:url(#clippath-27);}.cls-23{clip-path:url(#clippath-26);}.cls-24{clip-path:url(#clippath-14);}.cls-25{clip-path:url(#clippath-13);}.cls-26{clip-path:url(#clippath-12);}.cls-27{clip-path:url(#clippath-10);}.cls-28{clip-path:url(#clippath-15);}.cls-29{clip-path:url(#clippath-17);}.cls-30{clip-path:url(#clippath-16);}.cls-31{clip-path:url(#clippath-19);}.cls-32{clip-path:url(#clippath-11);}.cls-33{clip-path:url(#clippath-18);}</style>
    <clipPath id="clippath">
      <rect class="cls-1" x="-2299.86" y="-357" width="4545" height="3213.73"></rect>
    </clipPath>
    <clipPath id="clippath-1">
      <rect class="cls-1" x="-2299.86" y="-357" width="4545" height="3213.73"></rect>
    </clipPath>
    <clipPath id="clippath-2">
      <rect class="cls-1" x="-2299.86" y="-357" width="4545" height="3213.73"></rect>
    </clipPath>
    <clipPath id="clippath-3">
      <rect class="cls-1" x="-2299.86" y="-357" width="4545" height="3213.73"></rect>
    </clipPath>
    <clipPath id="clippath-4">
      <rect class="cls-1" x="-2299.86" y="-357" width="4545" height="3213.73"></rect>
    </clipPath>
    <clipPath id="clippath-5">
      <rect class="cls-1" x="-2299.86" y="-357" width="4545" height="3213.73"></rect>
    </clipPath>
    <clipPath id="clippath-6">
      <rect class="cls-1" x="-2299.86" y="-357" width="4545" height="3213.73"></rect>
    </clipPath>
    <clipPath id="clippath-7">
      <rect class="cls-1" x="-2299.86" y="-357" width="4545" height="3213.73"></rect>
    </clipPath>
    <clipPath id="clippath-8">
      <rect class="cls-1" x="-2299.86" y="-357" width="4545" height="3213.73"></rect>
    </clipPath>
    <clipPath id="clippath-9">
      <rect class="cls-1" x="-2299.86" y="-357" width="4545" height="3213.73"></rect>
    </clipPath>
    <clipPath id="clippath-10">
      <rect class="cls-1" x="-2299.86" y="-357" width="4545" height="3213.73"></rect>
    </clipPath>
    <clipPath id="clippath-11">
      <rect class="cls-1" x="-2299.86" y="-357" width="4545" height="3213.73"></rect>
    </clipPath>
    <clipPath id="clippath-12">
      <rect class="cls-1" x="-2299.86" y="-357" width="4545" height="3213.73"></rect>
    </clipPath>
    <clipPath id="clippath-13">
      <rect class="cls-1" x="-2299.86" y="-357" width="4545" height="3213.73"></rect>
    </clipPath>
    <clipPath id="clippath-14">
      <rect class="cls-1" x="-2299.86" y="-357" width="4545" height="3213.73"></rect>
    </clipPath>
    <clipPath id="clippath-15">
      <rect class="cls-1" x="-2299.86" y="-357" width="4545" height="3213.73"></rect>
    </clipPath>
    <clipPath id="clippath-16">
      <rect class="cls-1" x="-2299.86" y="-357" width="4545" height="3213.73"></rect>
    </clipPath>
    <clipPath id="clippath-17">
      <rect class="cls-1" x="-2299.86" y="-357" width="4545" height="3213.73"></rect>
    </clipPath>
    <clipPath id="clippath-18">
      <rect class="cls-1" x="-2299.86" y="-357" width="4545" height="3213.73"></rect>
    </clipPath>
    <clipPath id="clippath-19">
      <rect class="cls-1" x="-2299.86" y="-357" width="4545" height="3213.73"></rect>
    </clipPath>
    <clipPath id="clippath-20">
      <rect class="cls-1" x="-2299.86" y="-357" width="4545" height="3213.73"></rect>
    </clipPath>
    <clipPath id="clippath-21">
      <rect class="cls-1" x="-2299.86" y="-357" width="4545" height="3213.73"></rect>
    </clipPath>
    <clipPath id="clippath-22">
      <rect class="cls-1" x="-2299.86" y="-357" width="4545" height="3213.73"></rect>
    </clipPath>
    <clipPath id="clippath-23">
      <rect class="cls-1" x="-2299.86" y="-357" width="4545" height="3213.73"></rect>
    </clipPath>
    <clipPath id="clippath-24">
      <rect class="cls-1" x="-2299.86" y="-357" width="4545" height="3213.73"></rect>
    </clipPath>
    <clipPath id="clippath-25">
      <rect class="cls-1" x="-2299.86" y="-357" width="4545" height="3213.73"></rect>
    </clipPath>
    <clipPath id="clippath-26">
      <rect class="cls-1" x="-2299.86" y="-357" width="4545" height="3213.73"></rect>
    </clipPath>
    <clipPath id="clippath-27">
      <rect class="cls-1" x="-2299.86" y="-357" width="4545" height="3213.73"></rect>
    </clipPath>
  </defs>
  <rect class="cls-3" x="313.56" y="842.01" width="19.97" height="19.97"></rect>
  <rect class="cls-3" x="338.39" y="842.01" width="19.97" height="19.97"></rect>
  <rect class="cls-3" x="313.56" y="866.84" width="19.97" height="19.97"></rect>
  <rect class="cls-3" x="338.39" y="866.84" width="19.97" height="19.97"></rect>
  <polygon class="cls-4" points="336.23 766.97 430.7 861.44 488.47 861.44 439.88 812.31 439.88 708.66 399.39 708.66 399.39 771.83 336.23 708.66 200.73 844.17 200.73 960.23 334.61 960.23 375.1 1042.83 375.1 919.74 241.76 919.74 241.76 861.44 336.23 766.97"></polygon>
  <g class="cls-2">
    <path class="cls-4" d="m1678.3,83.52H284.4c-45.89,0-83.68,37.25-83.68,83.68v619.21l41.03-41.03V167.19c0-23.21,18.89-42.11,42.11-42.11h1394.43c23.21,0,42.11,18.89,42.11,42.11v709.36c0,23.21-18.89,42.11-42.11,42.11H415.59v41.03h1263.25c45.89,0,83.68-37.25,83.68-83.68V167.19c-.54-45.89-37.79-83.68-84.22-83.68"></path>
  </g>
  <g class="cls-7">
    <path class="cls-5" d="m1234,366.94v159.26c76.12,18.35,132.26,86.92,132.26,168.43,0,35.63-10.8,69.1-29.15,96.63h271.54v-424.32h-374.66Z"></path>
  </g>
  <g class="cls-10">
    <path class="cls-4" d="m1450.48,366.94h58.3c3.24,0,5.94-2.7,5.94-5.94v-37.79c0-3.24-2.7-5.94-5.94-5.94h-175.45c-3.24,0-5.94,2.7-5.94,5.94v37.79c0,3.24,2.7,5.94,5.94,5.94h58.3l8.64-12.96c1.62-2.16,4.32-3.78,7.02-3.78h27.53c2.7,0,5.4,1.62,7.02,3.78l8.64,12.96Zm58.3,16.2h-63.16c-2.7,0-5.4-1.62-7.02-3.78l-8.64-12.96h-18.89l-8.64,12.96c-1.62,2.16-4.32,3.78-7.02,3.78h-62.08c-12.42,0-22.67-10.26-22.67-22.67v-37.79c0-12.42,10.26-22.67,22.67-22.67h175.45c12.42,0,22.67,10.26,22.67,22.67v37.79c0,12.96-10.26,22.67-22.67,22.67"></path>
  </g>
  <g class="cls-9">
    <path class="cls-4" d="m1628.63,840.93h-254.81c-4.32,0-8.1-3.78-8.1-8.1s3.78-8.1,8.1-8.1h254.81c7.02,0,12.96-5.94,12.96-12.96v-472.37c0-3.24-2.7-5.94-5.94-5.94h-106.89c-4.32,0-8.1-3.78-8.1-8.1s3.78-8.1,8.1-8.1h106.89c12.42,0,22.13,10.26,22.13,22.13v471.83c.54,16.2-12.96,29.69-29.15,29.69"></path>
  </g>
  <g class="cls-8">
    <path class="cls-4" d="m1192.43,432.8c-4.32,0-8.1-3.78-8.1-8.1v-85.3c0-12.42,10.26-22.13,22.13-22.13h106.89c4.32,0,8.1,3.78,8.1,8.1s-3.78,8.1-8.1,8.1h-106.89c-3.24,0-5.94,2.7-5.94,5.94v85.3c0,4.32-3.78,8.1-8.1,8.1"></path>
  </g>
  <g class="cls-14">
    <path class="cls-4" d="m1489.89,305.94c-4.32,0-8.1-3.78-8.1-8.1v-10.8c0-4.32-3.78-8.1-8.1-8.1h-104.73c-4.32,0-8.1,3.78-8.1,8.1v10.8c0,4.32-3.78,8.1-8.1,8.1s-8.1-3.78-8.1-8.1v-10.8c0-13.5,11.34-24.83,24.83-24.83h104.19c13.5,0,24.83,11.34,24.83,24.83v10.8c0,4.86-3.78,8.1-8.64,8.1"></path>
  </g>
  <g class="cls-13">
    <path class="cls-4" d="m1489.89,350.2h-5.4c-4.32,0-8.1-3.78-8.1-8.1s3.78-8.1,8.1-8.1h5.4c4.32,0,8.1,3.78,8.1,8.1.54,4.32-3.24,8.1-8.1,8.1"></path>
  </g>
  <g class="cls-11">
    <path class="cls-4" d="m1357.63,350.2h-5.4c-4.32,0-8.1-3.78-8.1-8.1s3.78-8.1,8.1-8.1h5.4c4.32,0,8.1,3.78,8.1,8.1.54,4.32-3.24,8.1-8.1,8.1"></path>
  </g>
  <g class="cls-12">
    <path class="cls-4" d="m1550.89,554.27h-99.33c-4.32,0-8.1-3.78-8.1-8.1v-99.33c0-4.32,3.78-8.1,8.1-8.1h71.8c4.32,0,8.1,3.78,8.1,8.1s-3.78,8.1-8.1,8.1h-63.16v82.6h82.6v-24.83c0-4.32,3.78-8.1,8.1-8.1s8.1,3.78,8.1,8.1v32.93c0,4.86-3.78,8.64-8.1,8.64"></path>
  </g>
  <g class="cls-15">
    <path class="cls-3" d="m1506.62,521.34c-2.7,0-4.86-1.08-6.48-3.24l-22.13-27.53c-2.7-3.78-2.16-8.64,1.08-11.88,3.78-2.7,8.64-2.16,11.88,1.08l16.2,19.97,43.19-48.05c3.24-3.24,8.1-3.78,11.88-.54,3.24,3.24,3.78,8.1.54,11.88l-49.67,55.06c-2.16,2.16-4.32,3.24-6.48,3.24"></path>
  </g>
  <g class="cls-27">
    <path class="cls-4" d="m1550.89,724.86h-99.33c-4.32,0-8.1-3.78-8.1-8.1v-99.33c0-4.32,3.78-8.1,8.1-8.1h71.8c4.32,0,8.1,3.78,8.1,8.1s-3.78,8.1-8.1,8.1h-63.16v82.6h82.6v-24.83c0-4.32,3.78-8.1,8.1-8.1s8.1,3.78,8.1,8.1v32.93c0,4.86-3.78,8.64-8.1,8.64"></path>
  </g>
  <g class="cls-32">
    <path class="cls-6" d="m1506.62,691.93c-2.7,0-4.86-1.08-6.48-3.24l-22.13-27.53c-2.7-3.78-2.16-8.64,1.08-11.88,3.78-2.7,8.64-2.16,11.88,1.08l16.2,19.97,43.19-48.05c3.24-3.24,8.1-3.78,11.88-.54,3.24,3.24,3.78,8.1.54,11.88l-49.67,55.06c-2.16,2.16-4.32,3.24-6.48,3.24"></path>
  </g>
  <g class="cls-26">
    <path class="cls-5" d="m1192.43,824.19c-71.26,0-129.56-57.76-129.56-129.56s57.76-129.56,129.56-129.56,129.56,57.76,129.56,129.56-57.76,129.56-129.56,129.56m0-297.46c-92.85,0-167.89,75.04-167.89,167.89s75.04,167.89,167.89,167.89,167.89-75.04,167.89-167.89-75.04-167.89-167.89-167.89"></path>
  </g>
  <g class="cls-25">
    <path class="cls-4" d="m1192.43,532.13c-89.61,0-162.49,72.88-162.49,162.49s72.88,162.49,162.49,162.49,162.49-72.88,162.49-162.49-72.88-162.49-162.49-162.49m0,341.72c-98.79,0-179.23-80.44-179.23-179.23s80.44-179.23,179.23-179.23,179.23,80.44,179.23,179.23-80.44,179.23-179.23,179.23"></path>
  </g>
  <g class="cls-24">
    <path class="cls-4" d="m1192.43,526.73c-4.32,0-8.1-3.78-8.1-8.1v-22.13c0-4.32,3.78-8.1,8.1-8.1s8.1,3.78,8.1,8.1v22.13c0,4.32-3.78,8.1-8.1,8.1"></path>
  </g>
  <g class="cls-28">
    <path class="cls-4" d="m1214.57,499.2h-44.27c-4.32,0-8.1-3.78-8.1-8.1s3.78-8.1,8.1-8.1h44.27c4.32,0,8.1,3.78,8.1,8.1s-3.78,8.1-8.1,8.1"></path>
  </g>
  <g class="cls-30">
    <path class="cls-4" d="m1068.27,568.84c-2.7,0-5.4-1.08-7.02-3.78l-11.34-17.28c-3.24-4.86-4.32-10.26-3.24-15.66,1.08-5.4,4.32-10.26,9.18-12.96l15.66-10.26c9.72-6.48,22.67-3.78,29.15,5.94l11.34,17.28c2.7,3.78,1.62,9.18-2.16,11.34-3.78,2.7-9.18,1.62-11.34-2.16l-11.34-17.28c-1.08-2.16-3.78-2.7-5.94-1.08l-15.66,10.26c-1.08.54-1.62,1.62-1.62,2.7s0,2.16.54,3.24l11.34,17.28c2.7,3.78,1.62,9.18-2.16,11.34-2.16,1.08-3.78,1.08-5.4,1.08"></path>
  </g>
  <g class="cls-29">
    <path class="cls-4" d="m1192.43,620.13c-4.32,0-8.1-3.78-8.1-8.1v-10.8c0-4.32,3.78-8.1,8.1-8.1s8.1,3.78,8.1,8.1v10.8c0,4.32-3.78,8.1-8.1,8.1"></path>
  </g>
  <g class="cls-33">
    <path class="cls-4" d="m1192.43,796.66c-4.32,0-8.1-3.78-8.1-8.1v-10.8c0-4.32,3.78-8.1,8.1-8.1s8.1,3.78,8.1,8.1v10.8c0,4.32-3.78,8.1-8.1,8.1"></path>
  </g>
  <g class="cls-31">
    <path class="cls-4" d="m1109.83,702.73h-10.8c-4.32,0-8.1-3.78-8.1-8.1s3.78-8.1,8.1-8.1h10.8c4.32,0,8.1,3.78,8.1,8.1,0,4.86-3.78,8.1-8.1,8.1"></path>
  </g>
  <g class="cls-16">
    <path class="cls-4" d="m1286.37,702.73h-10.8c-4.32,0-8.1-3.78-8.1-8.1s3.78-8.1,8.1-8.1h10.8c4.32,0,8.1,3.78,8.1,8.1,0,4.86-3.78,8.1-8.1,8.1"></path>
  </g>
  <g class="cls-17">
    <path class="cls-3" d="m1192.43,702.73c-2.16,0-3.78-.54-5.4-2.16-3.24-3.24-3.78-8.1-.54-11.88l55.06-60.46c3.24-3.24,8.1-3.78,11.88-.54,3.24,3.24,3.78,8.1.54,11.88l-55.6,60.46c-1.62,2.16-3.78,2.7-5.94,2.7"></path>
  </g>
  <g class="cls-20">
    <path class="cls-4" d="m1206.47,694.63c0,7.56-5.94,14.04-14.04,14.04-7.56,0-14.04-5.94-14.04-14.04s5.94-14.04,14.04-14.04c7.56.54,14.04,6.48,14.04,14.04"></path>
  </g>
  <g class="cls-19">
    <path class="cls-4" d="m1385.16,471.67h-99.33c-4.32,0-8.1-3.78-8.1-8.1s3.78-8.1,8.1-8.1h99.33c4.32,0,8.1,3.78,8.1,8.1.54,4.32-3.24,8.1-8.1,8.1"></path>
  </g>
  <g class="cls-18">
    <path class="cls-4" d="m1385.16,521.34h-65.86c-4.32,0-8.1-3.78-8.1-8.1s3.78-8.1,8.1-8.1h65.86c4.32,0,8.1,3.78,8.1,8.1.54,4.32-3.24,8.1-8.1,8.1"></path>
  </g>
  <g class="cls-21">
    <path class="cls-4" d="m918.19,600.15h10.26v-29.15l22.13,29.15h8.64v-45.89h-10.26v28.61l-21.59-28.61h-9.18v45.89h0Zm-35.63-9.72c-1.62-.54-3.24-1.62-4.32-3.24-1.08-1.08-2.16-2.7-2.7-4.86-.54-1.62-1.08-3.78-1.08-5.4h0c0-2.16.54-3.78,1.08-5.4.54-1.62,1.62-3.24,2.7-4.32s2.7-2.16,4.32-3.24c1.62-.54,3.78-1.08,5.4-1.08,2.16,0,3.78.54,5.4,1.08,1.62.54,3.24,1.62,4.32,3.24s2.16,2.7,2.7,4.86c.54,1.62,1.08,3.78,1.08,5.4h0c0,2.16-.54,3.78-1.08,5.4-.54,1.62-1.62,3.24-2.7,4.32s-2.7,2.16-4.32,3.24c-1.62.54-3.78,1.08-5.4,1.08-1.62.54-3.78,0-5.4-1.08m15.66,8.64c3.24-1.08,5.4-2.7,7.56-5.4,2.16-2.16,3.78-4.86,4.86-7.56s1.62-5.94,1.62-9.18h0c0-3.24-.54-6.48-1.62-9.18s-2.7-5.4-4.86-7.56-4.86-3.78-7.56-4.86c-3.24-1.08-6.48-1.62-9.72-1.62-3.78,0-7.02.54-9.72,1.62s-5.4,2.7-7.56,5.4c-2.16,2.16-3.78,4.86-4.86,7.56-1.08,2.7-1.62,5.94-1.62,9.18h0c0,3.24.54,6.48,1.62,9.18,1.08,2.7,2.7,5.4,4.86,7.56s4.86,3.78,7.56,4.86c3.24,1.08,6.48,1.62,9.72,1.62,3.24.54,6.48,0,9.72-1.62m-50.21,1.08h10.26v-45.89h-10.26v45.89Zm-28.07,0h10.26v-36.71h14.04v-9.18h-38.33v9.18h14.04v36.71Zm-28.61.54c1.62-.54,3.24-1.08,4.86-1.62,1.62-.54,2.7-1.62,4.32-2.7,1.08-1.08,2.7-2.16,3.78-3.24l-6.48-6.48c-1.62,1.62-3.78,3.24-5.4,3.78-1.62,1.08-4.32,1.62-6.48,1.62s-3.78-.54-5.4-1.08c-1.62-.54-3.24-1.62-4.32-3.24-1.08-1.08-2.16-2.7-2.7-4.86-.54-1.62-1.08-3.78-1.08-5.4h0c0-2.16.54-3.78,1.08-5.4s1.62-3.24,2.7-4.32,2.7-2.16,4.32-3.24c1.62-.54,3.24-1.08,5.4-1.08s4.32.54,6.48,1.62c1.62,1.08,3.78,2.16,5.4,3.78l6.48-7.56c-1.08-1.08-2.16-2.16-3.24-2.7s-2.7-1.62-3.78-2.16c-1.62-.54-3.24-1.08-4.86-1.62-1.62-.54-3.78-.54-5.94-.54-3.78,0-7.02.54-9.72,1.62s-5.4,2.7-7.56,5.4c-2.16,2.16-3.78,4.86-4.86,7.56s-1.62,5.94-1.62,9.18h0c0,3.24.54,6.48,1.62,9.18s2.7,5.4,4.86,7.56c2.16,2.16,4.86,3.78,7.56,4.86s5.94,1.62,9.18,1.62c1.62,0,3.78,0,5.4-.54m-58.84-19.43l5.94-15.12,5.94,15.12h-11.88Zm-18.36,18.89h10.26l4.32-10.26h19.43l4.32,10.26h10.8l-19.97-46.43h-9.18l-19.97,46.43Zm-10.26,0c2.16-.54,3.78-1.62,5.4-2.7s2.7-2.7,3.24-4.32c1.08-1.62,1.08-3.78,1.08-5.94h0c0-2.16-.54-3.78-1.08-5.4-.54-1.62-1.62-2.7-2.7-3.78s-2.7-2.16-4.86-2.7c-1.62-.54-3.78-1.62-6.48-2.16-2.16-.54-3.78-1.08-4.86-1.62s-2.16-.54-3.24-1.08c-.54-.54-1.08-1.08-1.62-1.62s-.54-1.08-.54-2.16h0c0-1.08.54-2.16,1.62-2.7s2.7-1.08,4.32-1.08c2.16,0,3.78.54,5.94,1.08,2.16,1.08,3.78,2.16,5.94,3.24l5.4-7.56c-2.16-2.16-4.86-3.24-7.56-4.32-2.7-1.08-5.94-1.62-9.18-1.62-2.16,0-4.32.54-6.48,1.08-2.16.54-3.78,1.62-4.86,2.7-1.62,1.08-2.7,2.7-3.24,4.32s-1.08,3.78-1.08,5.94h0c0,2.16.54,4.32,1.08,5.94.54,1.62,1.62,2.7,3.24,3.78,1.62,1.08,2.7,2.16,4.86,2.7s3.78,1.08,6.48,2.16c2.16.54,3.24,1.08,4.86,1.62,1.08.54,2.16,1.08,2.7,1.08.54.54,1.08,1.08,1.62,1.62,0,.54.54,1.08.54,1.62h0c0,1.62-.54,2.7-1.62,3.24s-2.7,1.08-4.86,1.08c-2.7,0-4.86-.54-7.02-1.62-2.16-1.08-4.32-2.16-6.48-4.32l-5.94,7.02c2.7,2.7,5.94,4.32,9.18,5.4,3.24,1.08,7.02,1.62,10.26,1.62,1.62.54,4.32,0,5.94-.54m-71.8,0h10.26v-29.15l22.13,29.15h8.64v-45.89h-10.26v28.61l-21.59-28.61h-9.18v45.89h0Zm-33.47-18.89l5.94-15.12,5.94,15.12h-11.88Zm-18.36,18.89h10.26l4.32-10.26h19.43l4.32,10.26h10.8l-19.97-46.43h-9.18l-19.97,46.43Zm-31.31-23.75v-12.96h10.26c2.7,0,4.32.54,5.94,1.62s2.16,2.7,2.16,4.86h0c0,2.16-.54,3.78-2.16,4.86s-3.24,1.62-5.94,1.62h-10.26Zm-10.26,23.75h10.26v-14.58h8.1l9.72,14.58h11.88l-11.34-16.74c2.7-1.08,5.4-2.7,7.02-5.4s2.7-5.4,2.7-9.18h0c0-4.32-1.08-8.1-3.78-10.8-3.24-3.24-7.56-4.86-13.5-4.86h-21.05v46.97Zm-27.53,0h10.26v-36.71h14.04v-9.18h-38.33v9.18h14.04v36.71Zm-59.92-23.75v-12.96h10.26c2.7,0,4.32.54,5.94,1.62s2.16,2.7,2.16,4.86h0c0,2.16-.54,3.78-2.16,4.86s-3.24,1.62-5.94,1.62h-10.26Zm-10.26,23.75h10.26v-14.58h8.1l9.72,14.58h11.88l-11.34-16.74c2.7-1.08,5.4-2.7,7.02-5.4,1.62-2.7,2.7-5.4,2.7-9.18h0c0-4.32-1.08-8.1-3.78-10.8-3.24-3.24-7.56-4.86-13.5-4.86h-21.05v46.97h0Zm-41.03,0h35.09v-9.18h-24.83v-9.72h21.59v-9.18h-21.59v-9.18h24.83v-9.18h-34.55v46.43h-.54Zm-30.23-22.67v-14.04h8.1c2.7,0,4.32.54,5.94,1.62,1.62,1.08,2.16,2.7,2.16,5.4h0c0,2.16-.54,3.78-2.16,4.86s-3.24,2.16-5.94,2.16h-8.1Zm-10.26,22.67h10.26v-14.04h7.56c2.7,0,4.86-.54,7.02-1.08,2.16-.54,4.32-1.62,5.94-3.24,1.62-1.62,3.24-3.24,3.78-4.86,1.08-2.16,1.62-4.32,1.62-7.02h0c0-2.16-.54-4.32-1.08-6.48s-2.16-3.78-3.24-4.86c-1.62-1.62-3.24-2.7-5.4-3.24s-4.86-1.08-7.56-1.08h-18.89v45.89h0Z"></path>
  </g>
  <g class="cls-23">
    <path class="cls-4" d="m843.15,516.48c3.78-1.08,7.02-2.7,9.72-4.86s4.86-4.86,6.48-8.1c1.62-3.24,2.16-7.02,2.16-10.8h0c0-3.78-.54-7.02-1.62-9.18-1.08-2.7-2.7-4.86-4.86-7.02-2.16-2.16-4.86-3.78-8.1-4.86-3.24-1.62-7.02-2.7-11.34-3.78-3.78-1.08-6.48-1.62-8.64-2.7-2.16-.54-4.32-1.62-5.4-2.16-1.08-.54-2.16-1.62-2.7-2.7s-.54-2.16-.54-3.24h0c0-2.16,1.08-3.78,2.7-5.4s4.32-2.16,8.1-2.16,7.02.54,10.8,2.16c3.78,1.62,7.02,3.24,10.8,5.94l9.72-13.5c-4.32-3.24-9.18-5.94-14.04-8.1-4.86-1.62-10.8-2.7-16.74-2.7-4.32,0-8.1.54-11.88,1.62-3.78,1.08-6.48,2.7-9.18,4.86-2.7,2.16-4.32,4.86-5.94,8.1s-2.16,6.48-2.16,10.26h0c0,4.32.54,7.56,2.16,10.26s3.24,4.86,5.4,7.02c2.16,1.62,5.4,3.24,8.64,4.86,3.24,1.08,7.02,2.16,11.34,3.24,3.24,1.08,6.48,1.62,8.64,2.7,2.16.54,3.78,1.62,4.86,2.16,1.08.54,2.16,1.62,2.7,2.7s.54,2.16.54,3.24h0c0,2.7-1.08,4.32-3.24,5.94-2.16,1.62-4.86,2.16-8.64,2.16-4.86,0-9.18-1.08-12.96-2.7-3.78-1.62-8.1-4.32-11.88-7.56l-10.8,12.96c4.86,4.32,10.26,8.1,16.74,10.26,5.94,2.16,12.42,3.24,18.36,3.24,2.7,0,7.02-.54,10.8-2.16m-102.03-42.11v-23.75h18.36c4.32,0,8.1,1.08,10.8,2.7,2.7,2.16,3.78,4.86,3.78,8.64h0c0,3.78-1.08,6.48-3.78,8.64-2.16,2.16-5.94,3.24-10.26,3.24l-18.89.54h0Zm-18.35,42.65h18.36v-26.45h14.58l17.81,26.45h21.59l-20.51-29.69c5.4-2.16,9.72-4.86,12.96-9.18,3.24-4.32,4.86-9.72,4.86-16.2h0c0-8.1-2.16-14.04-7.02-18.89-5.4-5.4-13.5-8.64-24.29-8.64h-37.79v82.6h-.54Zm-34.01-.54c4.32-1.62,8.1-3.78,11.34-7.02,3.24-3.24,5.4-7.02,7.56-11.88,1.62-4.86,2.7-10.26,2.7-16.74v-46.97h-18.36v47.51c0,6.48-1.62,11.88-4.86,15.12-3.24,3.24-7.56,4.86-12.96,4.86s-10.26-1.62-12.96-5.4c-3.24-3.24-4.86-8.64-4.86-15.12v-46.97h-18.36v47.51c0,12.42,3.24,21.59,9.72,27.53,6.48,5.94,15.12,9.18,26.45,9.18,4.86.54,9.72-.54,14.58-1.62m-113.37-16.74c-3.24-1.62-5.94-3.24-8.1-5.4s-3.78-5.4-5.4-8.1c-1.08-3.24-1.62-6.48-1.62-10.26h0c0-3.78.54-7.02,1.62-10.26,1.08-3.24,2.7-5.94,4.86-8.1s4.86-4.32,8.1-5.4c3.24-1.08,6.48-2.16,10.26-2.16s7.02.54,10.26,2.16c3.24,1.62,5.94,3.24,8.1,5.4s3.78,5.4,5.4,8.1c1.08,3.24,1.62,6.48,1.62,10.26h0c0,3.78-.54,7.02-1.62,10.26-1.08,3.24-2.7,5.94-4.86,8.1s-4.86,4.32-8.1,5.4c-3.24,1.08-6.48,2.16-10.26,2.16-3.78,0-7.02-.54-10.26-2.16m27.53,15.66c5.4-2.16,10.26-5.4,14.04-9.18,3.78-3.78,7.02-8.64,9.18-13.5,2.16-5.4,3.24-10.8,3.24-16.74h0c0-5.94-1.08-11.34-3.24-16.74-2.16-5.4-5.4-9.72-9.18-13.5-3.78-3.78-8.64-7.02-14.04-9.18-5.4-2.16-11.34-3.24-17.81-3.24s-12.42,1.08-17.81,3.24c-5.4,2.16-10.26,5.4-14.04,9.18-3.78,3.78-7.02,8.64-9.18,13.5-2.16,5.4-3.24,10.8-3.24,16.74h0c0,5.94,1.08,11.34,3.24,16.74s5.4,9.72,9.18,13.5,8.64,7.02,14.04,9.18c5.4,2.16,11.34,3.24,17.81,3.24,6.48,0,12.42-1.08,17.81-3.24m-141.44,1.62h18.36v-33.47h33.47v33.47h18.36v-83.14h-18.36v32.93h-33.47v-32.93h-18.35v83.14h0Z"></path>
  </g>
  <g class="cls-22">
    <path class="cls-6" d="m831.27,386.37h133.34v-34.55h-95.55v-36.71h82.6v-34.55h-82.6v-35.63h93.93v-34.55h-131.72v175.99Zm-113.91,1.62h34.01l70.72-176.53h-41.57l-45.89,123.63-45.89-123.63h-42.65l71.26,176.53Zm-163.03-74.5l23.21-56.68,23.21,56.68h-46.43Zm-69.1,72.88h39.41l16.2-39.41h73.96l16.2,39.41h40.49l-75.58-176.53h-35.63l-75.04,176.53Zm-35.09-1.08c7.56-2.16,14.58-5.94,19.97-10.26,5.4-4.86,10.26-10.26,12.96-17.28,3.24-7.02,4.86-14.58,4.86-23.21v-.54c0-7.56-1.08-14.04-3.78-19.97-2.16-5.4-5.94-10.26-10.8-14.58-4.86-4.32-10.8-7.56-17.28-10.26-7.02-2.7-14.58-5.4-23.75-8.1-7.56-2.16-13.5-3.78-18.89-5.4-4.86-1.62-8.64-3.24-11.88-4.86-2.7-1.62-4.86-3.78-5.94-5.4-1.08-2.16-1.62-4.32-1.62-7.56v-.54c0-4.32,1.62-8.1,5.4-10.8,3.78-2.7,9.18-4.32,16.74-4.32s15.12,1.62,22.67,4.86c7.56,3.24,15.12,7.56,23.21,12.42l19.97-29.15c-9.18-7.02-18.89-12.96-29.69-16.74-10.8-3.78-22.67-5.94-35.63-5.94-9.18,0-17.28,1.08-24.83,3.78-7.56,2.7-14.04,5.94-19.43,10.8s-9.72,10.26-12.42,16.74c-3.24,6.48-4.32,13.5-4.32,21.59v.54c0,8.64,1.62,16.2,4.32,21.59,2.7,5.94,6.48,10.8,11.88,14.58,4.86,3.78,11.34,7.02,18.35,9.72s15.12,4.86,24.29,7.02c7.56,1.62,13.5,3.78,17.81,5.4,4.86,1.62,8.1,3.24,10.8,4.86s4.32,3.24,5.4,5.4,1.62,4.32,1.62,6.48v.54c0,5.4-2.16,9.18-6.48,11.88-4.32,2.7-10.8,4.32-18.89,4.32-10.26,0-19.43-2.16-27.53-5.94-8.64-3.78-16.74-9.18-24.83-15.66l-22.67,27.53c10.26,9.72,22.13,16.74,35.09,21.05,12.96,4.32,25.91,7.02,39.41,7.02,9.72,2.16,18.36,1.08,25.91-1.62"></path>
  </g>
</svg>
